<?xml version="1.0" encoding="UTF-8"?>
<svg xmlns="http://www.w3.org/2000/svg" style="display: none;">
<symbol id="iit-t2-pos" viewBox="0 0 576 576">
<path fill="currentColor" d="M209.7 29.7L31.9 29.7C19.5 29.7 9.4 39.9 9.4 52.2L9.4 226L209.7 226C222.1 226 232.2 215.8 232.2 203.4L232.2 52.2C232.2 39.9 222.1 29.7 209.7 29.7zM64.2 69C64.2 73.5 62.6 77.3 59.6 80.4C56.5 83.5 52.8 85 48.4 85C44 85 40.4 83.5 37.3 80.4C34.1 77.3 32.6 73.5 32.6 69C32.6 64.4 34.1 60.8 37.3 57.8C40.4 54.7 44 53.2 48.4 53.2C52.7 53.2 56.5 54.7 59.6 57.8C62.6 60.8 64.2 64.6 64.2 69zM63.3 201.5L33.4 201.5L33.4 93.1L63.3 93.1L63.3 201.5zM121.3 68.9C121.3 73.4 119.8 77.3 116.7 80.3C113.6 83.4 109.9 85 105.5 85C101.1 85 97.5 83.4 94.4 80.3C91.3 77.3 89.7 73.5 89.7 68.9C89.7 64.4 91.3 60.8 94.4 57.7C97.5 54.6 101.2 53.1 105.5 53.1C109.9 53.1 113.6 54.6 116.7 57.7C119.8 60.8 121.3 64.5 121.3 68.9zM120.5 201.5L90.6 201.5L90.6 93.1L120.5 93.1L120.5 201.5zM208.5 111.8L180 111.8L180 167.4C180 173.1 180.9 177.3 182.8 179.9C184.7 182.5 188.3 183.8 193.7 183.8C196.2 183.8 198.7 183.6 201 183.2C203.4 182.8 205.6 182.3 207.6 181.6L207.6 198.6C204.4 199.9 200.5 200.9 195.8 201.5C191.2 202.2 186.6 202.5 182.1 202.5C172.2 202.5 164.4 199.3 158.7 192.9C152.9 186.6 150.1 177.4 150.1 165.4L150.1 111.6L137.3 111.6L137.3 96.2L151.3 95.4L161.3 59.3L180.1 59.3L180.1 95.2L208.6 95.2L208.6 111.8zM262.1 59.2L268.9 59.2L268.9 91.8L262.1 91.8L262.1 59.2zM277.6 84.3C279.7 85.6 282.1 86.7 285 86.7C287.5 86.7 290 85.8 290 83.3C290 77.4 276.1 78.2 276.1 68.2C276.1 63.3 280 58.9 287 58.9C290.5 58.9 293.4 59.7 295.3 60.7L295.3 66.8C292.4 65.4 289.8 64.6 287.2 64.6C285.1 64.6 283.3 65.4 283.3 67.6C283.3 73.1 297.3 72.4 297.3 82.7C297.3 88.7 292.1 92.3 285.3 92.3C281.4 92.3 277.7 91.3 275 89.4L277.6 84.3zM312.3 65L302.8 65L302.8 59.2L329.4 59.2L327.6 65L319.1 65L319.1 91.8L312.3 91.8L312.3 65zM333.2 59.2L340 59.2L340 91.8L333.2 91.8L333.2 59.2zM353.9 65L344.4 65L344.4 59.2L371 59.2L369.2 65L360.6 65L360.6 91.8L353.9 91.8L353.9 65zM378.4 86.2C377.5 84.4 377 82.2 377 79.5L377 59.2L383.8 59.2L383.8 79.1C383.8 80.8 384.1 82.3 384.7 83.4C385.9 85.5 388 86.6 391.1 86.6C394.1 86.6 396.2 85.5 397.4 83.4C398 82.3 398.3 80.8 398.3 79L398.3 59.2L405.1 59.2L405.1 79.5C405.1 82.2 404.6 84.4 403.7 86.2C401.5 90.4 397.1 92.3 391.1 92.3C385 92.3 380.7 90.3 378.5 86.2zM418.7 65L409.2 65L409.2 59.2L435.7 59.2L434 65L425.4 65L425.4 91.8L418.6 91.8L418.6 65zM471.5 75.6C471.5 84.7 464.1 92.2 454.9 92.2C445.7 92.2 438.3 84.7 438.3 75.6C438.3 66.4 445.7 59 454.9 59C464.1 59 471.5 66.4 471.5 75.6zM464.3 75.6C464.3 68.5 460.5 64.5 454.9 64.5C449.2 64.5 445.5 68.4 445.5 75.6C445.5 82.7 449.3 86.6 454.9 86.6C460.5 86.6 464.3 82.7 464.3 75.6zM262.1 114.2L268.9 114.2L268.9 146.8L262.1 146.8L262.1 114.2zM282.8 119.9L273.3 119.9L273.3 114.2L299.9 114.2L298.1 119.9L289.5 119.9L289.5 146.8L282.7 146.8L282.7 119.9zM312.8 114L318.3 114L331.6 146.7L324.4 146.7L321.2 138.8L310.1 138.8L307.1 146.7L300.2 146.7L312.8 114zM319.1 133.3L317.2 127.9C316.4 125.5 316 124.1 315.7 123.1L315.6 123.1C315.4 124.2 314.9 125.6 314 128L312 133.4L319.1 133.4zM335.7 114.2L342.4 114.2L342.4 141L353.8 141L353.8 146.8L335.7 146.8L335.7 114.2zM358.4 114.2L365.2 114.2L365.2 146.8L358.4 146.8L358.4 114.2zM382 114L387.4 114L400.7 146.7L393.5 146.7L390.3 138.8L379.2 138.8L376.2 146.7L369.3 146.7L382 114zM388.3 133.3L386.3 127.9C385.6 125.5 385.2 124.1 384.9 123.1L384.8 123.1C384.5 124.2 384 125.6 383.2 128L381.2 133.4L388.3 133.4zM428.5 146.7L414.9 128.9C413.7 127.3 412.7 125.8 411.5 124.4L411.5 124.4C411.6 125.6 411.6 127.6 411.6 129.2L411.6 146.7L404.8 146.7L404.8 114.1L411.6 114.1L424.7 131.3C426 132.9 427 134.4 428 135.8L428.1 135.8C428 134 428 131.9 428 130.3L428 114.1L434.8 114.1L434.8 146.7L428.6 146.7zM476.7 130.5C476.7 139.7 469.3 147.1 460.1 147.1C451 147.1 443.6 139.7 443.6 130.5C443.6 121.4 451 113.9 460.1 113.9C469.3 113.9 476.7 121.4 476.7 130.5zM469.5 130.5C469.5 123.4 465.8 119.5 460.1 119.5C454.5 119.5 450.8 123.4 450.8 130.5C450.8 137.6 454.6 141.6 460.1 141.6C465.7 141.6 469.5 137.7 469.5 130.5zM493.6 114.2L504.6 114.2C516.1 114.2 522.6 120.5 522.6 130.2C522.6 139.9 515.1 146.8 503.9 146.8L493.6 146.8L493.6 114.2zM504.1 141C512.1 141 515.3 136.1 515.3 130.4C515.3 123.8 511.4 119.9 503.9 119.9L500.3 119.9L500.3 141L504 141zM528.8 114.2L535.6 114.2L535.6 146.8L528.8 146.8L528.8 114.2zM268.4 174.9L258.9 174.9L258.9 169.1L285.4 169.1L283.7 174.9L275.1 174.9L275.1 201.7L268.3 201.7L268.3 174.9zM289.3 169.1L308.1 169.1L306.3 174.9L296 174.9L296 182.4L306.4 182.4L306.4 188.1L296 188.1L296 196L308 196L308 201.7L289.3 201.7L289.3 169.1zM341 199.5C337.2 201.6 333.5 202.2 330.2 202.2C319.3 202.2 313.4 195.3 313.4 185.7C313.4 176.2 320.2 168.8 331 168.8C334.6 168.8 337.6 169.4 339.7 170.4L339.7 176.6C337.1 175.2 334.3 174.4 331.1 174.4C324 174.4 320.6 179.6 320.6 185.6C320.6 192 324.6 196.5 331 196.5C334.3 196.5 336.7 195.5 339.1 194.1L341 199.5zM370.1 201.7L356.4 183.8C355.2 182.3 354.2 180.7 353.1 179.3L353 179.3C353.1 180.5 353.1 182.6 353.1 184.1L353.1 201.7L346.3 201.7L346.3 169.1L353.1 169.1L366.2 186.3C367.5 187.9 368.6 189.3 369.5 190.7L369.6 190.7C369.5 189 369.5 186.8 369.5 185.3L369.5 169.1L376.3 169.1L376.3 201.7L370.1 201.7zM418.3 185.5C418.3 194.6 410.8 202.1 401.7 202.1C392.5 202.1 385.1 194.6 385.1 185.5C385.1 176.3 392.5 168.9 401.7 168.9C410.8 168.9 418.3 176.3 418.3 185.5zM411.1 185.5C411.1 178.4 407.3 174.4 401.7 174.4C396 174.4 392.3 178.3 392.3 185.5C392.3 192.6 396.1 196.5 401.7 196.5C407.2 196.5 411.1 192.6 411.1 185.5zM424.6 169.1L431.4 169.1L431.4 196L442.8 196L442.8 201.7L424.6 201.7L424.6 169.1zM479.3 185.5C479.3 194.6 471.9 202.1 462.7 202.1C453.5 202.1 446.1 194.6 446.1 185.5C446.1 176.3 453.5 168.9 462.7 168.9C471.9 168.9 479.3 176.3 479.3 185.5zM472.1 185.5C472.1 178.4 468.4 174.4 462.7 174.4C457.1 174.4 453.3 178.3 453.3 185.5C453.3 192.6 457.2 196.5 462.7 196.5C468.3 196.5 472.1 192.6 472.1 185.5zM513.9 199.5C510.7 201.1 506.3 202.2 501.7 202.2C490.7 202.2 484.4 195.3 484.4 186C484.4 176.2 491.6 168.8 502.6 168.8C506.5 168.8 509.6 169.5 512.3 170.4L512.3 176.7C509.6 175.4 506.7 174.5 503.2 174.5C495.6 174.5 491.6 179.1 491.6 185.6C491.6 192.2 495.5 196.5 502.2 196.5C504.2 196.5 506 196.2 507.2 195.7L507.2 185.7L514 185.7L514 199.5zM521.3 169.1L528 169.1L528 201.7L521.3 201.7L521.3 169.1zM544.8 169L550.3 169L563.6 201.7L556.3 201.7L553.2 193.7L542.1 193.7L539.1 201.7L532.1 201.7L544.8 169zM551.2 188.3L549.2 182.8C548.4 180.4 548 179.1 547.7 178L547.6 178C547.4 179.1 546.9 180.5 546 182.9L544 188.3L551.2 188.3z"/>
</symbol>
<symbol id="iit-t1-pos" viewBox="0 0 576 576">
<path fill="currentColor" d="M445.9 57.6L143.5 57.6C122.4 57.6 105.1 74.9 105.1 96L105.1 391.6L445.9 391.6C467 391.6 484.3 374.3 484.3 353.2L484.3 96C484.3 74.9 467 57.6 445.9 57.6zM198.3 124.4C198.3 132.1 195.7 138.6 190.5 143.8C185.3 149 178.9 151.7 171.5 151.7C164.1 151.7 157.9 149.1 152.6 143.8C147.3 138.5 144.7 132.1 144.7 124.4C144.7 116.7 147.3 110.5 152.6 105.3C157.9 100.1 164.2 97.4 171.5 97.4C178.8 97.4 185.3 100 190.5 105.3C195.7 110.5 198.3 116.9 198.3 124.4zM196.9 350.1L146 350.1L146 165.5L196.9 165.5L196.9 350.1zM295.6 124.4C295.6 132.1 293 138.6 287.8 143.8C282.6 149 276.2 151.7 268.8 151.7C261.4 151.7 255.1 149.1 249.9 143.8C244.6 138.6 242 132.1 242 124.4C242 116.7 244.6 110.5 249.9 105.3C255.2 100.1 261.5 97.4 268.8 97.4C276.1 97.4 282.6 100 287.8 105.3C293 110.6 295.6 116.9 295.6 124.4zM294.2 350.1L243.3 350.1L243.3 165.5L294.2 165.5L294.2 350.1zM443.9 197.4L395.4 197.4L395.4 292C395.4 301.6 397 308.7 400.2 313.2C403.4 317.7 409.5 319.9 418.7 319.9C423.1 319.9 427.3 319.6 431.3 318.9C435.3 318.2 439.1 317.3 442.5 316.3L442.5 345.2C437.1 347.5 430.4 349.1 422.5 350.2C414.6 351.3 406.8 351.8 399.2 351.8C382.4 351.8 369.1 346.4 359.3 335.5C349.5 324.6 344.6 309.1 344.6 288.7L344.6 197.1L322.8 197.1L322.8 170.8L346.6 169.5L363.6 108.1L395.5 108.1L395.5 169.2L444 169.2L444 197.4zM105.6 438.5L110.9 438.5L110.9 467.6L105.6 467.6L105.6 438.5zM118.6 461.5C120.3 462.7 122.5 463.6 125.2 463.6C127.6 463.6 130 462.7 130 460.2C130 454.5 117.4 455.2 117.4 446.3C117.4 442 120.8 438.3 126.8 438.3C129.8 438.3 132.3 439 133.9 439.8L133.9 444.6C131.6 443.4 129.3 442.7 127 442.7C125 442.7 123 443.5 123 445.8C123 451.1 135.6 450.4 135.6 459.7C135.6 464.9 131.2 468 125.2 468C121.8 468 118.6 467 116.4 465.5L118.5 461.4zM146.9 443L138.4 443L138.4 438.5L161.4 438.5L159.9 443L152.1 443L152.1 467.6L146.8 467.6L146.8 443zM165.4 438.5L170.7 438.5L170.7 467.6L165.4 467.6L165.4 438.5zM183.4 443L174.9 443L174.9 438.5L197.9 438.5L196.4 443L188.6 443L188.6 467.6L183.3 467.6L183.3 443zM202.9 462.4C202.2 460.9 201.8 459 201.8 456.7L201.8 438.5L207.1 438.5L207.1 456.4C207.1 457.9 207.4 459.3 207.9 460.3C208.9 462.4 210.9 463.6 213.9 463.6C216.9 463.6 218.8 462.4 219.9 460.3C220.4 459.2 220.7 457.9 220.7 456.3L220.7 438.5L226 438.5L226 456.7C226 459 225.7 460.9 224.9 462.4C223.1 466.2 219.3 468 213.9 468C208.5 468 204.7 466.1 202.9 462.3zM238.5 443L230 443L230 438.5L253 438.5L251.5 443L243.7 443L243.7 467.6L238.4 467.6L238.4 443zM283.5 453C284 458.5 281.3 463.8 276.6 466.8C271.9 469.7 265.9 469.7 261.2 466.8C256.5 463.9 253.8 458.6 254.2 453.1C253.7 447.6 256.4 442.3 261.1 439.3C265.8 436.4 271.8 436.4 276.5 439.3C281.2 442.2 283.9 447.5 283.5 453zM277.8 453.1C277.8 446.6 274.3 442.6 268.8 442.6C263.3 442.6 259.8 446.4 259.8 453.1C259.8 459.8 263.4 463.5 268.8 463.5C274.2 463.5 277.8 459.7 277.8 453.1zM298.8 438.5L304.1 438.5L304.1 467.6L298.8 467.6L298.8 438.5zM316.8 443L308.3 443L308.3 438.5L331.3 438.5L329.8 443L322 443L322 467.6L316.7 467.6L316.7 443zM340.3 438.3L344.5 438.3L356.2 467.5L350.5 467.5L347.7 460.2L337.3 460.2L334.6 467.5L329.1 467.5L340.4 438.3zM346.1 455.9L344.1 450.1C343.3 447.9 342.9 446.6 342.6 445.6L342.5 445.6C342.2 446.6 341.8 447.9 341 450.2L338.9 455.9L346.1 455.9zM360.4 438.4L365.7 438.4L365.7 463L376 463L376 467.5L360.4 467.5L360.4 438.4zM380.4 438.4L385.7 438.4L385.7 467.5L380.4 467.5L380.4 438.4zM401 438.3L405.2 438.3L416.9 467.5L411.2 467.5L408.4 460.2L398 460.2L395.3 467.5L389.8 467.5L401.1 438.3zM406.7 455.9L404.7 450.1C403.9 447.9 403.5 446.6 403.2 445.6L403.1 445.6C402.8 446.6 402.4 447.9 401.6 450.2L399.5 455.9L406.7 455.9zM442.2 467.5L429.6 450.9C428.3 449.3 427.3 447.8 426.3 446.5L426.2 446.5C426.3 447.6 426.3 449.3 426.3 451L426.3 467.5L421 467.5L421 438.4L426.2 438.4L438.4 454.3C439.7 456 440.7 457.4 441.6 458.8L441.7 458.8C441.7 457.3 441.6 455.5 441.6 453.9L441.6 438.4L446.9 438.4L446.9 467.5L442.1 467.5zM482.4 453C482.9 458.5 480.2 463.8 475.5 466.8C470.8 469.7 464.8 469.7 460.1 466.8C455.4 463.9 452.7 458.6 453.1 453.1C452.6 447.6 455.3 442.3 460 439.3C464.7 436.4 470.7 436.4 475.4 439.3C480.1 442.2 482.8 447.5 482.4 453zM476.7 453.1C476.7 446.6 473.2 442.6 467.7 442.6C462.2 442.6 458.7 446.4 458.7 453.1C458.7 459.8 462.3 463.5 467.7 463.5C473.1 463.5 476.7 459.7 476.7 453.1zM105.6 491.4L114.7 491.4C125 491.4 130.6 497.1 130.6 505.7C130.6 514.3 124.3 520.4 114.2 520.4L105.6 520.4L105.6 491.3zM114.3 516C122 516 124.9 511.3 124.9 505.8C124.9 499.7 121.3 495.9 114.2 495.9L110.9 495.9L110.9 516L114.3 516zM136.6 491.4L141.9 491.4L141.9 520.5L136.6 520.5L136.6 491.4zM164.1 495.9L155.6 495.9L155.6 491.4L178.6 491.4L177.1 495.9L169.3 495.9L169.3 520.5L164 520.5L164 495.9zM182.6 491.4L198.7 491.4L197.2 495.9L187.9 495.9L187.9 503.5L197.2 503.5L197.2 508L187.9 508L187.9 516L198.7 516L198.7 520.5L182.6 520.5L182.6 491.4zM226.9 518.7C223.7 520.5 220.6 521 217.7 521C208.2 521 203 514.9 203 506.3C203 497.7 209 491.2 218.4 491.2C221.6 491.2 224.2 491.8 226 492.6L226 497.5C223.7 496.3 221.3 495.6 218.5 495.6C212 495.6 208.7 500.4 208.7 506.2C208.7 512.3 212.4 516.5 218.4 516.5C221.3 516.5 223.5 515.7 225.5 514.5L227 518.7zM253.2 520.6L240.6 504C239.3 502.4 238.3 500.9 237.3 499.6L237.2 499.6C237.3 500.7 237.3 502.4 237.3 504.1L237.3 520.6L232 520.6L232 491.5L237.2 491.5L249.4 507.4C250.7 509.1 251.7 510.5 252.6 511.9L252.7 511.9C252.7 510.4 252.6 508.6 252.6 507L252.6 491.5L257.9 491.5L257.9 520.6L253.1 520.6zM264.1 506.2C264.1 497.4 270.2 491.3 278.8 491.3C287.4 491.3 293.5 497.4 293.5 506.2C293.5 515 287.3 521.1 278.8 521.1C270.3 521.1 264.1 515.1 264.1 506.2zM287.8 506.2C287.8 499.7 284.3 495.7 278.8 495.7C273.3 495.7 269.8 499.5 269.8 506.2C269.8 512.9 273.4 516.6 278.8 516.6C284.2 516.6 287.8 512.8 287.8 506.2zM299.4 491.5L304.7 491.5L304.7 516.1L315 516.1L315 520.6L299.4 520.6L299.4 491.5zM317.4 506.2C317.4 497.4 323.5 491.3 332.1 491.3C340.7 491.3 346.8 497.4 346.8 506.2C346.8 515 340.6 521.1 332.1 521.1C323.6 521.1 317.4 515.1 317.4 506.2zM341.1 506.2C341.1 499.7 337.6 495.7 332.1 495.7C326.6 495.7 323.1 499.5 323.1 506.2C323.1 512.9 326.7 516.6 332.1 516.6C337.5 516.6 341.1 512.8 341.1 506.2zM377.1 518.7C374.5 520 370.6 521 366.5 521C357 521 351.3 514.9 351.3 506.5C351.3 497.7 357.6 491.2 367.3 491.2C370.7 491.2 373.5 491.9 375.7 492.7L375.7 497.6C373.4 496.5 370.8 495.6 367.7 495.6C360.7 495.6 357 499.9 357 506.1C357 512.3 360.7 516.5 366.9 516.5C368.9 516.5 370.6 516.2 371.7 515.6L371.7 506.4L377 506.4L377 518.6zM384.1 491.5L389.4 491.5L389.4 520.6L384.1 520.6L384.1 491.5zM404.7 491.4L408.9 491.4L420.6 520.6L414.9 520.6L412.1 513.3L401.7 513.3L399 520.6L393.5 520.6L404.8 491.4zM410.4 509L408.4 503.2C407.6 501 407.2 499.7 406.9 498.7L406.8 498.7C406.5 499.7 406.1 501 405.3 503.3L403.2 509L410.4 509z"/>
</symbol>
</svg>