<svg xmlns="http://www.w3.org/2000/svg" viewBox="0 0 423 512"><path fill="currentColor" d="M369.4 25.6L67 25.6C45.9 25.6 28.6 42.9 28.6 64l0 295.6 340.8 0c21.1 0 38.4-17.3 38.4-38.4l0-257.2c0-21.1-17.3-38.4-38.4-38.4zM121.8 92.4c0 7.7-2.6 14.2-7.8 19.4-5.2 5.2-11.6 7.9-19 7.9s-13.6-2.6-18.9-7.9-7.9-11.7-7.9-19.4 2.6-13.9 7.9-19.1 11.6-7.9 18.9-7.9 13.8 2.6 19 7.9c5.2 5.2 7.8 11.6 7.8 19.1zm-1.4 225.7l-50.9 0 0-184.6 50.9 0 0 184.6zM219.1 92.4c0 7.7-2.6 14.2-7.8 19.4s-11.6 7.9-19 7.9-13.7-2.6-18.9-7.9c-5.3-5.2-7.9-11.7-7.9-19.4s2.6-13.9 7.9-19.1 11.6-7.9 18.9-7.9 13.8 2.6 19 7.9 7.8 11.6 7.8 19.1zm-1.4 225.7l-50.9 0 0-184.6 50.9 0 0 184.6zM367.4 165.4l-48.5 0 0 94.6c0 9.6 1.6 16.7 4.8 21.2 3.2 4.5 9.3 6.7 18.5 6.7 4.4 0 8.6-.3 12.6-1s7.8-1.6 11.2-2.6l0 28.9c-5.4 2.3-12.1 3.9-20 5s-15.7 1.6-23.3 1.6c-16.8 0-30.1-5.4-39.9-16.3-9.8-10.9-14.7-26.4-14.7-46.8l0-91.6-21.8 0 0-26.3 23.8-1.3 17-61.4 31.9 0 0 61.1 48.5 0 0 28.2zM29.1 406.5l5.3 0 0 29.1-5.3 0 0-29.1zm13 23c1.7 1.2 3.9 2.1 6.6 2.1 2.4 0 4.8-.9 4.8-3.4 0-5.7-12.6-5-12.6-13.9 0-4.3 3.4-8 9.4-8 3 0 5.5 .7 7.1 1.5l0 4.8c-2.3-1.2-4.6-1.9-6.9-1.9-2 0-4 .8-4 3.1 0 5.3 12.6 4.6 12.6 13.9 0 5.2-4.4 8.3-10.4 8.3-3.4 0-6.6-1-8.8-2.5l2.1-4.1zM70.4 411l-8.5 0 0-4.5 23 0-1.5 4.5-7.8 0 0 24.6-5.3 0 0-24.6zm18.5-4.5l5.3 0 0 29.1-5.3 0 0-29.1zm18 4.5l-8.5 0 0-4.5 23 0-1.5 4.5-7.8 0 0 24.6-5.3 0 0-24.6zm19.5 19.4c-.7-1.5-1.1-3.4-1.1-5.7l0-18.2 5.3 0 0 17.9c0 1.5 .3 2.9 .8 3.9 1 2.1 3 3.3 6 3.3s4.9-1.2 6-3.3c.5-1.1 .8-2.4 .8-4l0-17.8 5.3 0 0 18.2c0 2.3-.3 4.2-1.1 5.7-1.8 3.8-5.6 5.6-11 5.6s-9.2-1.9-11-5.7zM162 411l-8.5 0 0-4.5 23 0-1.5 4.5-7.8 0 0 24.6-5.3 0 0-24.6zM207 421a14.7 14.7 0 1 1 -29.3 .1 14.7 14.7 0 1 1 29.3-.1zm-5.7 .1c0-6.5-3.5-10.5-9-10.5s-9 3.8-9 10.5 3.6 10.4 9 10.4 9-3.8 9-10.4zm21-14.6l5.3 0 0 29.1-5.3 0 0-29.1zm18 4.5l-8.5 0 0-4.5 23 0-1.5 4.5-7.8 0 0 24.6-5.3 0 0-24.6zm23.5-4.7l4.2 0 11.7 29.2-5.7 0-2.8-7.3-10.4 0-2.7 7.3-5.5 0 11.3-29.2zm5.8 17.6l-2-5.8c-.8-2.2-1.2-3.5-1.5-4.5l-.1 0c-.3 1-.7 2.3-1.5 4.6l-2.1 5.7 7.2 0zm14.3-17.5l5.3 0 0 24.6 10.3 0 0 4.5-15.6 0 0-29.1zm20 0l5.3 0 0 29.1-5.3 0 0-29.1zm20.6-.1l4.2 0 11.7 29.2-5.7 0-2.8-7.3-10.4 0-2.7 7.3-5.5 0 11.3-29.2zm5.7 17.6l-2-5.8c-.8-2.2-1.2-3.5-1.5-4.5l-.1 0c-.3 1-.7 2.3-1.5 4.6l-2.1 5.7 7.2 0zm35.5 11.6l-12.6-16.6c-1.3-1.6-2.3-3.1-3.3-4.4l-.1 0c.1 1.1 .1 2.8 .1 4.5l0 16.5-5.3 0 0-29.1 5.2 0 12.2 15.9c1.3 1.7 2.3 3.1 3.2 4.5l.1 0c0-1.5-.1-3.3-.1-4.9l0-15.5 5.3 0 0 29.1-4.8 0zM405.9 421a14.7 14.7 0 1 1 -29.3 .1 14.7 14.7 0 1 1 29.3-.1zm-5.7 .1c0-6.5-3.5-10.5-9-10.5s-9 3.8-9 10.5 3.6 10.4 9 10.4 9-3.8 9-10.4zM29.1 459.4l9.1 0c10.3 0 15.9 5.7 15.9 14.3s-6.3 14.7-16.4 14.7l-8.6 0 0-29.1zm8.7 24.6c7.7 0 10.6-4.7 10.6-10.2 0-6.1-3.6-9.9-10.7-9.9l-3.3 0 0 20.1 3.4 0zm22.3-24.6l5.3 0 0 29.1-5.3 0 0-29.1zm27.5 4.5l-8.5 0 0-4.5 23 0-1.5 4.5-7.8 0 0 24.6-5.3 0 0-24.6zm18.5-4.5l16.1 0-1.5 4.5-9.3 0 0 7.6 9.3 0 0 4.5-9.3 0 0 8 10.8 0 0 4.5-16.1 0 0-29.1zm44.3 27.3c-3.2 1.8-6.3 2.3-9.2 2.3-9.5 0-14.7-6.1-14.7-14.7s6-15.1 15.4-15.1c3.2 0 5.8 .6 7.6 1.4l0 4.9c-2.3-1.2-4.7-1.9-7.5-1.9-6.5 0-9.8 4.8-9.8 10.6 0 6.1 3.7 10.3 9.7 10.3 2.9 0 5.1-.8 7.1-2l1.5 4.2zm26.3 1.9L164.1 472c-1.3-1.6-2.3-3.1-3.3-4.4l-.1 0c.1 1.1 .1 2.8 .1 4.5l0 16.5-5.3 0 0-29.1 5.2 0 12.2 15.9c1.3 1.7 2.3 3.1 3.2 4.5l.1 0c0-1.5-.1-3.3-.1-4.9l0-15.5 5.3 0 0 29.1-4.8 0zm10.9-14.4c0-8.8 6.1-14.9 14.7-14.9s14.7 6.1 14.7 14.9-6.2 14.9-14.7 14.9-14.7-6-14.7-14.9zm23.7 0c0-6.5-3.5-10.5-9-10.5s-9 3.8-9 10.5 3.6 10.4 9 10.4 9-3.8 9-10.4zm11.6-14.7l5.3 0 0 24.6 10.3 0 0 4.5-15.6 0 0-29.1zm18 14.7c0-8.8 6.1-14.9 14.7-14.9s14.7 6.1 14.7 14.9-6.2 14.9-14.7 14.9-14.7-6-14.7-14.9zm23.7 0c0-6.5-3.5-10.5-9-10.5s-9 3.8-9 10.5 3.6 10.4 9 10.4 9-3.8 9-10.4zm36 12.5c-2.6 1.3-6.5 2.3-10.6 2.3-9.5 0-15.2-6.1-15.2-14.5 0-8.8 6.3-15.3 16-15.3 3.4 0 6.2 .7 8.4 1.5l0 4.9c-2.3-1.1-4.9-2-8-2-7 0-10.7 4.3-10.7 10.5s3.7 10.4 9.9 10.4c2 0 3.7-.3 4.8-.9l0-9.2 5.3 0 0 12.2zm7-27.2l5.3 0 0 29.1-5.3 0 0-29.1zm20.6-.1l4.2 0 11.7 29.2-5.7 0-2.8-7.3-10.4 0-2.7 7.3-5.5 0 11.3-29.2zm5.7 17.6l-2-5.8c-.8-2.2-1.2-3.5-1.5-4.5l-.1 0c-.3 1-.7 2.3-1.5 4.6l-2.1 5.7 7.2 0z"/></svg>