<svg xmlns="http://www.w3.org/2000/svg" viewBox="0 0 1326 512"><path fill="currentColor" d="M482.7 26.4l-409.2 0c-28.5 0-51.9 23.4-51.9 51.9l0 399.9 461.1 0c28.5 0 51.9-23.4 51.9-51.9l0-348c0-28.5-23.4-51.9-51.9-51.9zm-335 90.4c0 10.4-3.5 19.2-10.6 26.3-7 7.1-15.6 10.6-25.7 10.6s-18.4-3.5-25.6-10.6-10.7-15.8-10.7-26.3 3.5-18.7 10.7-25.8 15.6-10.6 25.6-10.6 18.6 3.5 25.7 10.6c7.1 7.1 10.6 15.7 10.6 25.8zM145.7 422l-68.8 0 0-249.7 68.8 0 0 249.7zM279.2 116.7c0 10.4-3.5 19.2-10.6 26.3s-15.6 10.6-25.7 10.6-18.5-3.5-25.6-10.6c-7.1-7.1-10.7-15.8-10.7-26.3s3.6-18.7 10.7-25.8 15.6-10.6 25.6-10.6 18.6 3.5 25.7 10.6 10.6 15.7 10.6 25.8zM277.3 422l-68.8 0 0-249.7 68.8 0 0 249.7zM479.9 215.5l-65.6 0 0 128c0 13 2.2 22.6 6.5 28.6 4.3 6.1 12.6 9.1 25 9.1 5.9 0 11.6-.5 17-1.4s10.5-2.1 15.1-3.6l0 39.1c-7.3 3-16.4 5.3-27.1 6.7s-21.2 2.2-31.6 2.2c-22.7 0-40.7-7.3-53.9-22-13.2-14.7-19.8-35.8-19.8-63.3l0-123.9-29.5 0 0-35.6 32.2-1.7 23.1-83.1 43.2 0 0 82.7 65.6 0 0 38.2zM603.4 94.4l15.6 0 0 75-15.6 0 0-75zM639 152c4.8 3.2 10.5 5.6 17.1 5.6 5.8 0 11.6-2 11.6-7.7 0-13.6-32.1-11.8-32.1-34.8 0-11.3 9-21.4 25.1-21.4 8 0 14.7 1.8 19 4l0 14c-6.5-3.2-12.5-4.9-18.5-4.9-4.8 0-9 1.7-9 6.9 0 12.7 32.1 10.9 32.1 34.8 0 13.7-11.9 22.1-27.6 22.1-8.8 0-17.5-2.4-23.6-6.8L639 152zm80-44.4l-21.9 0 0-13.2 61.2 0-4.1 13.2-19.7 0 0 61.8-15.6 0 0-61.8zm48.1-13.2l15.6 0 0 75-15.6 0 0-75zm47.6 13.2l-21.9 0 0-13.2 61.2 0-4.1 13.2-19.7 0 0 61.8-15.6 0 0-61.8zm56.5 48.9c-2.2-4.1-3.3-9.3-3.3-15.5l0-46.6 15.6 0 0 45.7c0 3.9 .8 7.3 2.2 9.9 2.6 4.9 7.6 7.5 14.6 7.5s11.8-2.6 14.5-7.5c1.5-2.6 2.2-6 2.2-10l0-45.6 15.6 0 0 46.6c0 6.2-1.1 11.4-3.3 15.5-4.9 9.6-15.1 14-29 14s-24-4.5-28.9-14zm92.6-48.9l-21.9 0 0-13.2 61.2 0-4.1 13.2-19.7 0 0 61.8-15.6 0 0-61.8zM1085.4 132a38.2 38.2 0 1 1 -76.4 0 38.2 38.2 0 1 1 76.4 0zm-16.6 0c0-16.3-8.6-25.4-21.6-25.4s-21.6 9-21.6 25.4 8.8 25.5 21.6 25.5 21.6-9 21.6-25.5zM603.4 220.9l15.6 0 0 75-15.6 0 0-75zm47.6 13.2l-21.9 0 0-13.2 61.2 0-4.1 13.2-19.7 0 0 61.8-15.6 0 0-61.8zm69.2-13.6l12.6 0 30.6 75.3-16.7 0-7.3-18.3-25.5 0-6.9 18.3-16 0 29.2-75.3zM734.7 265l-4.5-12.6c-1.8-5.5-2.7-8.6-3.4-11.1l-.2 0c-.6 2.6-1.7 5.8-3.7 11.3l-4.6 12.5 16.4 0zm38-44.1l15.6 0 0 61.8 26.2 0 0 13.2-41.8 0 0-75zm52.4 0l15.6 0 0 75-15.6 0 0-75zm54.2-.4l12.6 0 30.6 75.3-16.7 0-7.3-18.3-25.5 0-6.9 18.3-16 0 29.2-75.3zM893.9 265l-4.5-12.6c-1.8-5.5-2.7-8.6-3.4-11.1l-.2 0c-.6 2.6-1.7 5.8-3.7 11.3l-4.6 12.5 16.4 0zm92.6 30.8l-31.4-41.1c-2.7-3.6-5.1-7.1-7.7-10.3l-.2 0c.3 2.7 .3 7.4 .3 11l0 40.4-15.6 0 0-75 15.6 0 30.2 39.5c2.9 3.7 5.4 7.1 7.6 10.3l.2 0c-.2-4-.2-9-.2-12.5l0-37.3 15.6 0 0 75-14.3 0zm111-37.3a38.2 38.2 0 1 1 -76.4 0 38.2 38.2 0 1 1 76.4 0zm-16.6 0c0-16.3-8.6-25.4-21.6-25.4s-21.6 9-21.6 25.4 8.8 25.5 21.6 25.5 21.6-9 21.6-25.5zm55.4-37.6l25.3 0c26.4 0 41.4 14.5 41.4 36.9s-17.2 38.1-42.9 38.1l-23.8 0 0-75zm24.1 61.8c18.5 0 25.9-11.3 25.9-24.5 0-15.1-9-24.1-26.3-24.1l-8.2 0 0 48.6 8.5 0zm57-61.8l15.6 0 0 75-15.6 0 0-75zM617.8 360.6l-21.9 0 0-13.2 61.2 0-4.1 13.2-19.7 0 0 61.8-15.6 0 0-61.8zM666 347.4l43.3 0-4.1 13.2-23.7 0 0 17.3 23.8 0 0 13.1-23.8 0 0 18.2 27.6 0 0 13.2-43.2 0 0-75zm119 69.9c-8.8 4.8-17.2 6.2-24.9 6.2-25.1 0-38.6-15.9-38.6-37.9s15.7-39 40.5-39c8.3 0 15.1 1.5 20 3.6l0 14.3c-6-3.2-12.5-4.9-19.7-4.9-16.4 0-24.2 11.9-24.2 25.7 0 14.8 9.2 25.1 23.9 25.1 7.6 0 13.2-2.3 18.7-5.5l4.3 12.3zm66.9 5l-31.4-41.1c-2.7-3.6-5.1-7.1-7.7-10.3l-.2 0c.3 2.7 .3 7.4 .3 11l0 40.4-15.6 0 0-75 15.6 0 30.2 39.5c2.9 3.7 5.4 7.1 7.6 10.3l.2 0c-.2-4-.2-9-.2-12.5l0-37.3 15.6 0 0 75-14.3 0zm111-37.3a38.2 38.2 0 1 1 -76.4 0 38.2 38.2 0 1 1 76.4 0zm-16.6 0c0-16.3-8.6-25.4-21.6-25.4s-21.6 9-21.6 25.4 8.8 25.5 21.6 25.5 21.6-9 21.6-25.5zm31.2-37.6l15.6 0 0 61.8 26.2 0 0 13.2-41.8 0 0-75zM1103.4 385a38.2 38.2 0 1 1 -76.4 0 38.2 38.2 0 1 1 76.4 0zm-16.6 0c0-16.3-8.6-25.4-21.6-25.4s-21.6 9-21.6 25.4 8.8 25.5 21.6 25.5 21.6-9 21.6-25.5zm96.3 32.3c-7.4 3.7-17.6 6.2-28.1 6.2-25.4 0-39.9-15.8-39.9-37.2 0-22.7 16.5-39.7 42-39.7 8.9 0 16 1.6 22.3 3.6l0 14.5c-6.2-2.9-12.9-5-21-5-17.5 0-26.6 10.6-26.6 25.7s8.8 25.1 24.2 25.1c4.7 0 8.9-.8 11.6-1.9l0-23 15.6 0 0 31.8zm16.9-69.9l15.6 0 0 75-15.6 0 0-75zm54.2-.4l12.6 0 30.6 75.3-16.7 0-7.3-18.3-25.5 0-6.9 18.3-16 0 29.2-75.3zm14.6 44.5l-4.5-12.6c-1.8-5.5-2.7-8.6-3.4-11.1l-.2 0c-.6 2.6-1.7 5.8-3.7 11.3l-4.6 12.5 16.4 0z"/></svg>