<svg xmlns="http://www.w3.org/2000/svg" viewBox="0 0 576 576"><path fill="currentColor" d="M209.7 29.7L31.9 29.7C19.5 29.7 9.4 39.9 9.4 52.2L9.4 226L209.7 226C222.1 226 232.2 215.8 232.2 203.4L232.2 52.2C232.2 39.9 222.1 29.7 209.7 29.7zM64.2 69C64.2 73.5 62.6 77.3 59.6 80.4C56.5 83.5 52.8 85 48.4 85C44 85 40.4 83.5 37.3 80.4C34.1 77.3 32.6 73.5 32.6 69C32.6 64.4 34.1 60.8 37.3 57.8C40.4 54.7 44 53.2 48.4 53.2C52.7 53.2 56.5 54.7 59.6 57.8C62.6 60.8 64.2 64.6 64.2 69zM63.3 201.5L33.4 201.5L33.4 93.1L63.3 93.1L63.3 201.5zM121.3 68.9C121.3 73.4 119.8 77.3 116.7 80.3C113.6 83.4 109.9 85 105.5 85C101.1 85 97.5 83.4 94.4 80.3C91.3 77.3 89.7 73.5 89.7 68.9C89.7 64.4 91.3 60.8 94.4 57.7C97.5 54.6 101.2 53.1 105.5 53.1C109.9 53.1 113.6 54.6 116.7 57.7C119.8 60.8 121.3 64.5 121.3 68.9zM120.5 201.5L90.6 201.5L90.6 93.1L120.5 93.1L120.5 201.5zM208.5 111.8L180 111.8L180 167.4C180 173.1 180.9 177.3 182.8 179.9C184.7 182.5 188.3 183.8 193.7 183.8C196.2 183.8 198.7 183.6 201 183.2C203.4 182.8 205.6 182.3 207.6 181.6L207.6 198.6C204.4 199.9 200.5 200.9 195.8 201.5C191.2 202.2 186.6 202.5 182.1 202.5C172.2 202.5 164.4 199.3 158.7 192.9C152.9 186.6 150.1 177.4 150.1 165.4L150.1 111.6L137.3 111.6L137.3 96.2L151.3 95.4L161.3 59.3L180.1 59.3L180.1 95.2L208.6 95.2L208.6 111.8zM262.1 59.2L268.9 59.2L268.9 91.8L262.1 91.8L262.1 59.2zM277.6 84.3C279.7 85.6 282.1 86.7 285 86.7C287.5 86.7 290 85.8 290 83.3C290 77.4 276.1 78.2 276.1 68.2C276.1 63.3 280 58.9 287 58.9C290.5 58.9 293.4 59.7 295.3 60.7L295.3 66.8C292.4 65.4 289.8 64.6 287.2 64.6C285.1 64.6 283.3 65.4 283.3 67.6C283.3 73.1 297.3 72.4 297.3 82.7C297.3 88.7 292.1 92.3 285.3 92.3C281.4 92.3 277.7 91.3 275 89.4L277.6 84.3zM312.3 65L302.8 65L302.8 59.2L329.4 59.2L327.6 65L319.1 65L319.1 91.8L312.3 91.8L312.3 65zM333.2 59.2L340 59.2L340 91.8L333.2 91.8L333.2 59.2zM353.9 65L344.4 65L344.4 59.2L371 59.2L369.2 65L360.6 65L360.6 91.8L353.9 91.8L353.9 65zM378.4 86.2C377.5 84.4 377 82.2 377 79.5L377 59.2L383.8 59.2L383.8 79.1C383.8 80.8 384.1 82.3 384.7 83.4C385.9 85.5 388 86.6 391.1 86.6C394.1 86.6 396.2 85.5 397.4 83.4C398 82.3 398.3 80.8 398.3 79L398.3 59.2L405.1 59.2L405.1 79.5C405.1 82.2 404.6 84.4 403.7 86.2C401.5 90.4 397.1 92.3 391.1 92.3C385 92.3 380.7 90.3 378.5 86.2zM418.7 65L409.2 65L409.2 59.2L435.7 59.2L434 65L425.4 65L425.4 91.8L418.6 91.8L418.6 65zM471.5 75.6C471.5 84.7 464.1 92.2 454.9 92.2C445.7 92.2 438.3 84.7 438.3 75.6C438.3 66.4 445.7 59 454.9 59C464.1 59 471.5 66.4 471.5 75.6zM464.3 75.6C464.3 68.5 460.5 64.5 454.9 64.5C449.2 64.5 445.5 68.4 445.5 75.6C445.5 82.7 449.3 86.6 454.9 86.6C460.5 86.6 464.3 82.7 464.3 75.6zM262.1 114.2L268.9 114.2L268.9 146.8L262.1 146.8L262.1 114.2zM282.8 119.9L273.3 119.9L273.3 114.2L299.9 114.2L298.1 119.9L289.5 119.9L289.5 146.8L282.7 146.8L282.7 119.9zM312.8 114L318.3 114L331.6 146.7L324.4 146.7L321.2 138.8L310.1 138.8L307.1 146.7L300.2 146.7L312.8 114zM319.1 133.3L317.2 127.9C316.4 125.5 316 124.1 315.7 123.1L315.6 123.1C315.4 124.2 314.9 125.6 314 128L312 133.4L319.1 133.4zM335.7 114.2L342.4 114.2L342.4 141L353.8 141L353.8 146.8L335.7 146.8L335.7 114.2zM358.4 114.2L365.2 114.2L365.2 146.8L358.4 146.8L358.4 114.2zM382 114L387.4 114L400.7 146.7L393.5 146.7L390.3 138.8L379.2 138.8L376.2 146.7L369.3 146.7L382 114zM388.3 133.3L386.3 127.9C385.6 125.5 385.2 124.1 384.9 123.1L384.8 123.1C384.5 124.2 384 125.6 383.2 128L381.2 133.4L388.3 133.4zM428.5 146.7L414.9 128.9C413.7 127.3 412.7 125.8 411.5 124.4L411.5 124.4C411.6 125.6 411.6 127.6 411.6 129.2L411.6 146.7L404.8 146.7L404.8 114.1L411.6 114.1L424.7 131.3C426 132.9 427 134.4 428 135.8L428.1 135.8C428 134 428 131.9 428 130.3L428 114.1L434.8 114.1L434.8 146.7L428.6 146.7zM476.7 130.5C476.7 139.7 469.3 147.1 460.1 147.1C451 147.1 443.6 139.7 443.6 130.5C443.6 121.4 451 113.9 460.1 113.9C469.3 113.9 476.7 121.4 476.7 130.5zM469.5 130.5C469.5 123.4 465.8 119.5 460.1 119.5C454.5 119.5 450.8 123.4 450.8 130.5C450.8 137.6 454.6 141.6 460.1 141.6C465.7 141.6 469.5 137.7 469.5 130.5zM493.6 114.2L504.6 114.2C516.1 114.2 522.6 120.5 522.6 130.2C522.6 139.9 515.1 146.8 503.9 146.8L493.6 146.8L493.6 114.2zM504.1 141C512.1 141 515.3 136.1 515.3 130.4C515.3 123.8 511.4 119.9 503.9 119.9L500.3 119.9L500.3 141L504 141zM528.8 114.2L535.6 114.2L535.6 146.8L528.8 146.8L528.8 114.2zM268.4 174.9L258.9 174.9L258.9 169.1L285.4 169.1L283.7 174.9L275.1 174.9L275.1 201.7L268.3 201.7L268.3 174.9zM289.3 169.1L308.1 169.1L306.3 174.9L296 174.9L296 182.4L306.4 182.4L306.4 188.1L296 188.1L296 196L308 196L308 201.7L289.3 201.7L289.3 169.1zM341 199.5C337.2 201.6 333.5 202.2 330.2 202.2C319.3 202.2 313.4 195.3 313.4 185.7C313.4 176.2 320.2 168.8 331 168.8C334.6 168.8 337.6 169.4 339.7 170.4L339.7 176.6C337.1 175.2 334.3 174.4 331.1 174.4C324 174.4 320.6 179.6 320.6 185.6C320.6 192 324.6 196.5 331 196.5C334.3 196.5 336.7 195.5 339.1 194.1L341 199.5zM370.1 201.7L356.4 183.8C355.2 182.3 354.2 180.7 353.1 179.3L353 179.3C353.1 180.5 353.1 182.6 353.1 184.1L353.1 201.7L346.3 201.7L346.3 169.1L353.1 169.1L366.2 186.3C367.5 187.9 368.6 189.3 369.5 190.7L369.6 190.7C369.5 189 369.5 186.8 369.5 185.3L369.5 169.1L376.3 169.1L376.3 201.7L370.1 201.7zM418.3 185.5C418.3 194.6 410.8 202.1 401.7 202.1C392.5 202.1 385.1 194.6 385.1 185.5C385.1 176.3 392.5 168.9 401.7 168.9C410.8 168.9 418.3 176.3 418.3 185.5zM411.1 185.5C411.1 178.4 407.3 174.4 401.7 174.4C396 174.4 392.3 178.3 392.3 185.5C392.3 192.6 396.1 196.5 401.7 196.5C407.2 196.5 411.1 192.6 411.1 185.5zM424.6 169.1L431.4 169.1L431.4 196L442.8 196L442.8 201.7L424.6 201.7L424.6 169.1zM479.3 185.5C479.3 194.6 471.9 202.1 462.7 202.1C453.5 202.1 446.1 194.6 446.1 185.5C446.1 176.3 453.5 168.9 462.7 168.9C471.9 168.9 479.3 176.3 479.3 185.5zM472.1 185.5C472.1 178.4 468.4 174.4 462.7 174.4C457.1 174.4 453.3 178.3 453.3 185.5C453.3 192.6 457.2 196.5 462.7 196.5C468.3 196.5 472.1 192.6 472.1 185.5zM513.9 199.5C510.7 201.1 506.3 202.2 501.7 202.2C490.7 202.2 484.4 195.3 484.4 186C484.4 176.2 491.6 168.8 502.6 168.8C506.5 168.8 509.6 169.5 512.3 170.4L512.3 176.7C509.6 175.4 506.7 174.5 503.2 174.5C495.6 174.5 491.6 179.1 491.6 185.6C491.6 192.2 495.5 196.5 502.2 196.5C504.2 196.5 506 196.2 507.2 195.7L507.2 185.7L514 185.7L514 199.5zM521.3 169.1L528 169.1L528 201.7L521.3 201.7L521.3 169.1zM544.8 169L550.3 169L563.6 201.7L556.3 201.7L553.2 193.7L542.1 193.7L539.1 201.7L532.1 201.7L544.8 169zM551.2 188.3L549.2 182.8C548.4 180.4 548 179.1 547.7 178L547.6 178C547.4 179.1 546.9 180.5 546 182.9L544 188.3L551.2 188.3z"/></svg>